g ENV_S05_EG2_CentralStruct_Triangle_MO
v 2.761162 3.658473 1.594192
v 2.71448 3.658473 1.625812
v 2.71448 3.748207 1.625812
v 2.761162 3.748207 1.594192
v 2.76394 3.658473 1.535331
v 2.76394 3.748207 1.535331
v 2.737233 3.658473 1.469634
v 2.641305 3.748207 1.635746
v 2.641305 3.658473 1.635746
v 2.747275 3.796384 1.586179
v 2.737233 3.748207 1.469634
v 0.09588361 3.65858 -3.105352
v -2.641288 3.748207 1.635746
v -2.641288 3.658473 1.635746
v 2.700699 3.796384 1.617586
v 2.749946 3.796384 1.527533
v 0.09588361 3.748313 -3.105352
v 0.05080366 3.65858 -3.163678
v 2.723133 3.796384 1.462049
v 2.707857 3.812408 1.504138
v -2.714463 3.748207 1.625812
v -2.714463 3.658473 1.625812
v 2.705613 3.812408 1.562144
v 2.578385 3.812408 1.488648
v 2.659358 3.812408 1.592803
v 2.627738 3.796384 1.627307
v -2.627721 3.796384 1.627307
v 2.586824 3.812408 1.601883
v -2.578368 3.812408 1.488648
v -4.506111E-05 3.812408 -2.977269
v 2.680723 3.812408 1.439188
v 0.09396076 3.812408 -3.04115
v -2.700683 3.796384 1.617586
v -2.747365 3.796384 1.586179
v -2.586807 3.812408 1.601883
v -2.659341 3.812408 1.592803
v 0.09545636 3.796384 -3.089221
v 0.04973531 3.812408 -3.099476
v 0.05048323 3.796384 -3.147654
v -2.761252 3.748207 1.594192
v -2.761252 3.658473 1.594192
v -2.763923 3.748207 1.535331
v -2.763923 3.658473 1.535331
v -2.737216 3.748207 1.469634
v -2.737216 3.658473 1.469634
v -4.506111E-05 3.812408 -3.12426
v 0.05080366 3.748313 -3.163678
v -4.506111E-05 3.65858 -3.188354
v -4.506111E-05 3.796384 -3.172331
v -4.506111E-05 3.748313 -3.188354
v -0.05238914 3.65858 -3.161328
v -0.05238914 3.748313 -3.161328
v -0.09586692 3.65858 -3.105352
v -0.09586692 3.748313 -3.105352
v -0.05132079 3.812408 -3.097126
v -0.05206871 3.796384 -3.145197
v -0.09394407 3.812408 -3.04115
v -0.09543943 3.796384 -3.089221
v -2.680707 3.812408 1.439188
v -2.723116 3.796384 1.462049
v -2.70784 3.812408 1.504138
v -2.749929 3.796384 1.527533
v -2.705703 3.812408 1.562144
vt 0.6940061 0.2786148
vt 0.689491 0.2740997
vt 0.6864809 0.2778623
vt 0.6887384 0.2808724
vt 0.6955111 0.284635
vt 0.6902435 0.2853875
vt 0.6962636 0.2921602
vt 0.6812132 0.2756048
vt 0.6827183 0.2695846
vt 0.6864809 0.2823774
vt 0.6902435 0.2906552
vt 0.5134012 0.6097238
vt 0.3184984 0.2756048
vt 0.3169934 0.2695846
vt 0.6842233 0.2801199
vt 0.6872334 0.28614
vt 0.508886 0.6052087
vt 0.505876 0.6127339
vt 0.6864809 0.2899026
vt 0.6849758 0.2876451
vt 0.3139833 0.2778623
vt 0.3102207 0.2740997
vt 0.6842233 0.2838825
vt 0.6766981 0.2883976
vt 0.6819658 0.2816249
vt 0.6804607 0.2786148
vt 0.3200034 0.2786148
vt 0.6774506 0.2808724
vt 0.3237661 0.2883976
vt 0.4998558 0.5946734
vt 0.6834708 0.2914077
vt 0.5066285 0.598436
vt 0.3154883 0.2801199
vt 0.3132308 0.2823774
vt 0.3230135 0.2808724
vt 0.3184984 0.2816249
vt 0.5066285 0.6021986
vt 0.5036184 0.6021986
vt 0.5036184 0.6052087
vt 0.3109732 0.2816249
vt 0.3064581 0.2786148
vt 0.3094682 0.2853875
vt 0.3042005 0.284635
vt 0.3094682 0.2906552
vt 0.303448 0.2921602
vt 0.4998558 0.6037036
vt 0.5043709 0.6082187
vt 0.4998558 0.6142389
vt 0.4998558 0.6059612
vt 0.4998558 0.6089713
vt 0.4938356 0.6127339
vt 0.4960932 0.6082187
vt 0.487063 0.6097238
vt 0.4915781 0.6052087
vt 0.4968457 0.6021986
vt 0.4968457 0.6052087
vt 0.4938356 0.598436
vt 0.4930831 0.6021986
vt 0.3162408 0.2914077
vt 0.3132308 0.2906552
vt 0.3147358 0.2876451
vt 0.3124782 0.28614
vt 0.3154883 0.2838825
vn 0.8809208 -0.002641201 0.4732564
vn 0.3290814 -0.002641201 0.9442979
vn 0.3368538 0.09062737 0.9371852
vn 0.8731484 0.1061721 0.4757514
vn 0.9819618 -0.002641201 -0.189061
vn 0.9819618 0.09062737 -0.1659449
vn 0.865376 -0.002641201 -0.5011162
vn 0.002641201 0.0517655 0.9986558
vn 0.002641201 -0.002641201 0.999993
vn 0.6788387 0.6346944 0.3692439
vn 0.865376 0.0517655 -0.4984423
vn 0.865376 -0.002641201 -0.5011162
vn -0.005131185 0.0517655 0.9986461
vn -0.005131185 -0.002641201 0.9999833
vn 0.2669023 0.5802876 0.7694345
vn 0.7954245 0.5802876 -0.1748317
vn 0.865376 0.0517655 -0.4984423
vn 0.6555216 -0.002641201 -0.7551718
vn 0.8265141 0.3082542 -0.4710136
vn 0.1422013 0.9898378 0
vn -0.3315714 0.09062737 0.9390671
vn -0.323799 -0.002641201 0.9461222
vn 0.1114546 0.9922242 0.05539948
vn 0.002641201 0.9999965 -0.0002441406
vn 0.03373075 0.9922242 0.1198061
vn 0.002641201 0.3082542 0.9513004
vn -0.005131185 0.3082542 0.9512902
vn 0.002641201 0.9844517 0.1756355
vn 0.002641201 0.9999965 -0.0002441406
vn 0.002641201 0.9999965 -0.0002441406
vn 0.1503165 0.9844517 -0.09088329
vn 0.1503165 0.9844517 -0.09088329
vn -0.2693923 0.5802876 0.7685663
vn -0.6813287 0.6346944 0.3646288
vn 0.002641201 0.9844517 0.1756355
vn -0.03622073 0.9922242 0.1190768
vn 0.8187417 0.3082542 -0.484398
vn 0.1114546 0.9922242 -0.05539948
vn 0.5311635 0.5802876 -0.6173586
vn -0.8756383 0.1061721 0.4711528
vn -0.8756383 -0.002641201 0.4829602
vn -0.9766794 0.09062737 -0.1946383
vn -0.9844517 -0.002641201 -0.1756355
vn -0.867866 0.0517655 -0.4940941
vn -0.867866 -0.002641201 -0.4967914
vn -0.005131185 0.9922242 -0.124358
vn 0.6477492 0.09062737 -0.7564441
vn -0.02067596 -0.002641201 -0.9997827
vn -0.02067596 0.6346944 -0.7724866
vn -0.02067596 0.1061721 -0.9941328
vn -0.6580115 -0.002641201 -0.7530032
vn -0.6424667 0.09062737 -0.7609357
vn -0.867866 -0.002641201 -0.4967914
vn -0.8600935 0.0517655 -0.5075032
vn -0.1061721 0.9922242 -0.0649515
vn -0.5336533 0.5802876 -0.6152076
vn -0.1450341 0.9844517 -0.09909553
vn -0.8212317 0.3082542 -0.4801645
vn -0.1450341 0.9844517 -0.09909553
vn -0.8212317 0.3082542 -0.4801645
vn -0.1446338 0.9894852 0
vn -0.7979144 0.5802876 -0.1630913
vn -0.1061721 0.9922242 0.0649515
g ENV_S05_EG2_CentralStruct_Triangle_MO_0
f 3/3/3 2/2/2 1/1/1
f 4/4/4 3/3/3 1/1/1
f 1/1/1 5/5/5 4/4/4
f 5/5/5 6/6/6 4/4/4
f 5/5/5 7/7/7 6/6/6
f 3/3/3 8/8/8 2/2/2
f 8/8/8 9/9/9 2/2/2
f 4/4/4 10/10/10 3/3/3
f 4/4/4 6/6/6 10/10/10
f 7/7/7 11/11/11 6/6/6
f 7/7/7 12/12/12 11/11/11
f 8/8/8 13/13/13 9/9/9
f 13/13/13 14/14/14 9/9/9
f 10/10/10 15/15/15 3/3/3
f 3/3/3 15/15/15 8/8/8
f 6/6/6 16/16/16 10/10/10
f 6/6/6 11/11/11 16/16/16
f 12/12/12 17/17/17 11/11/11
f 12/12/12 18/18/18 17/17/17
f 11/11/11 19/19/19 16/16/16
f 11/11/11 17/17/17 19/19/19
f 16/16/16 20/20/20 10/10/10
f 20/20/20 16/16/16 19/19/19
f 13/13/13 21/21/21 14/14/14
f 21/21/21 22/22/22 14/14/14
f 10/10/10 23/23/23 15/15/15
f 20/20/20 23/23/23 10/10/10
f 23/23/23 20/20/20 24/24/24
f 23/23/23 25/25/25 15/15/15
f 25/25/25 23/23/23 24/24/24
f 15/15/15 25/25/25 26/26/26
f 15/15/15 26/26/26 8/8/8
f 27/27/27 13/13/13 8/8/8
f 26/26/26 27/27/27 8/8/8
f 25/25/25 28/28/28 26/26/26
f 28/28/28 25/25/25 24/24/24
f 26/26/26 28/28/28 27/27/27
f 28/28/28 24/24/24 29/29/29
f 29/29/29 24/24/24 30/30/30
f 31/31/31 24/24/24 20/20/20
f 31/31/31 20/20/20 19/19/19
f 31/31/31 32/32/32 24/24/24
f 32/32/32 31/31/31 19/19/19
f 32/32/32 30/30/30 24/24/24
f 27/27/27 33/33/33 13/13/13
f 33/33/33 21/21/21 13/13/13
f 33/33/33 34/34/34 21/21/21
f 28/28/28 35/35/35 27/27/27
f 27/27/27 35/35/35 33/33/33
f 35/35/35 28/28/28 29/29/29
f 35/35/35 36/36/36 33/33/33
f 33/33/33 36/36/36 34/34/34
f 35/35/35 29/29/29 36/36/36
f 37/37/37 32/32/32 19/19/19
f 17/17/17 37/37/37 19/19/19
f 38/38/38 32/32/32 37/37/37
f 30/30/30 32/32/32 38/38/38
f 39/39/39 37/37/37 17/17/17
f 39/39/39 38/38/38 37/37/37
f 34/34/34 40/40/40 21/21/21
f 21/21/21 40/40/40 22/22/22
f 40/40/40 41/41/41 22/22/22
f 41/41/41 40/40/40 42/42/42
f 40/40/40 34/34/34 42/42/42
f 43/43/43 41/41/41 42/42/42
f 43/43/43 42/42/42 44/44/44
f 45/45/45 43/43/43 44/44/44
f 38/38/38 46/46/46 30/30/30
f 46/46/46 38/38/38 39/39/39
f 47/47/47 39/39/39 17/17/17
f 18/18/18 47/47/47 17/17/17
f 18/18/18 48/48/48 47/47/47
f 49/49/49 46/46/46 39/39/39
f 49/49/49 39/39/39 47/47/47
f 48/48/48 50/50/50 47/47/47
f 50/50/50 49/49/49 47/47/47
f 48/48/48 51/51/51 50/50/50
f 51/51/51 52/52/52 50/50/50
f 49/49/49 50/50/50 52/52/52
f 51/51/51 53/53/53 52/52/52
f 53/53/53 45/45/45 54/54/54
f 53/53/53 54/54/54 52/52/52
f 45/45/45 44/44/44 54/54/54
f 55/55/55 46/46/46 49/49/49
f 46/46/46 55/55/55 30/30/30
f 56/56/56 49/49/49 52/52/52
f 56/56/56 52/52/52 54/54/54
f 56/56/56 55/55/55 49/49/49
f 57/57/57 30/30/30 55/55/55
f 57/57/57 55/55/55 56/56/56
f 58/58/58 56/56/56 54/54/54
f 58/58/58 57/57/57 56/56/56
f 58/58/58 54/54/54 44/44/44
f 57/57/57 59/59/59 30/30/30
f 59/59/59 57/57/57 58/58/58
f 59/59/59 29/29/29 30/30/30
f 60/60/60 58/58/58 44/44/44
f 60/60/60 59/59/59 58/58/58
f 29/29/29 59/59/59 61/61/61
f 61/61/61 59/59/59 60/60/60
f 62/62/62 60/60/60 44/44/44
f 62/62/62 61/61/61 60/60/60
f 42/42/42 62/62/62 44/44/44
f 34/34/34 62/62/62 42/42/42
f 61/61/61 62/62/62 34/34/34
f 29/29/29 61/61/61 63/63/63
f 63/63/63 61/61/61 34/34/34
f 36/36/36 29/29/29 63/63/63
f 36/36/36 63/63/63 34/34/34
