g PRP_SSL_Hexagon_01_MO
v -2.838663 0.6826715 5.09738
v -2.838663 -0.009702682 5.09738
v -2.995155 -0.009702682 5.006938
v -2.995155 0.6826715 5.006938
v -5.833728 -0.009702682 0.09035254
v -5.833728 0.6826715 0.09035254
v -5.833728 -0.009702682 -0.09035206
v -5.833728 0.6826715 -0.09035206
v -2.995155 -0.009702682 -5.006938
v -5.774977 0.8056927 0.09035254
v -2.995155 0.6826715 -5.006938
v -2.838663 -0.009702682 -5.09738
v -2.838663 0.6826715 -5.09738
v -2.965601 0.8056927 -4.956021
v -5.774977 0.8056927 -0.09035206
v -2.809288 0.8056927 5.046284
v -2.965601 0.8056927 4.956021
v -5.304256 1.213212 0.09035254
v 2.838663 0.6826715 5.09738
v -2.838663 -0.009702682 5.09738
v 2.838663 -0.009702682 5.09738
v -2.73024 1.213212 -4.548323
v -2.809288 0.8056927 -5.046284
v -5.304256 1.213212 -0.09035206
v -2.573926 1.213212 4.638765
v -2.73024 1.213212 4.548323
v -5.149366 1.264308 8.916855E-05
v -2.574639 1.264308 -4.459484
v -2.574639 1.264308 4.459485
v 2.809287 0.8056927 5.046284
v -2.573926 1.213212 -4.638764
v -8.916855E-05 1.264308 8.916855E-05
v 2.573926 1.213212 4.638765
v 2.574638 1.264308 -4.459484
v 2.573926 1.213212 -4.638764
v 2.574638 1.264308 4.459485
v 2.73024 1.213212 4.548323
v 2.965601 0.8056927 4.956021
v 5.149366 1.264308 8.916855E-05
v 5.304255 1.213212 0.09035254
v 2.73024 1.213212 -4.548323
v 2.809287 0.8056927 -5.046284
v 5.774977 0.8056927 0.09035254
v 5.304255 1.213212 -0.09035206
v 2.965601 0.8056927 -4.956021
v 5.774977 0.8056927 -0.09035206
v 5.833728 0.6826715 0.09035254
v 2.995155 0.6826715 -5.006938
v 2.838663 0.6826715 -5.09738
v 2.838663 -0.009702682 -5.09738
v -2.838663 -0.009702682 -5.09738
v 2.995155 -0.009702682 -5.006938
v 2.838663 -0.009702682 -5.09738
v 5.833728 -0.009702682 -0.09035206
v 5.833728 0.6826715 -0.09035206
v 5.833728 -0.009702682 0.09035254
v 2.995155 -0.009702682 5.006938
v 2.995155 0.6826715 5.006938
v 2.838663 -0.009702682 5.09738
v -2.838663 -0.009702682 5.09738
v 2.838663 -0.009702682 5.09738
v -0.3689756 -0.009702682 -0.6155524
v -2.995155 -0.009702682 5.006938
v 2.995155 -0.009702682 5.006938
v -5.833728 -0.009702682 0.09035254
v 5.833728 -0.009702682 0.09035254
v -5.833728 -0.009702682 -0.09035206
v 5.833728 -0.009702682 -0.09035206
v -2.995155 -0.009702682 -5.006938
v 2.995155 -0.009702682 -5.006938
v -2.838663 -0.009702682 -5.09738
v 2.838663 -0.009702682 -5.09738
vt 0.1586552 0.04672002
vt 0.1523869 0.0234375
vt 0.1353727 0.0332878
vt 0.1523869 0.05030195
vt 0.0234375 0.2311893
vt 0.04672002 0.2374576
vt 0.0234375 0.2508898
vt 0.04672002 0.2446215
vt 0.1353727 0.4487913
vt 0.04940647 0.2374576
vt 0.1523869 0.4326726
vt 0.1523869 0.4586416
vt 0.1586552 0.4353591
vt 0.1541778 0.4299862
vt 0.04940647 0.2446215
vt 0.1595507 0.04851099
vt 0.1541778 0.05209291
vt 0.07000255 0.2383531
vt 0.3744663 0.04672002
vt 0.1523869 0.0234375
vt 0.3807347 0.0234375
vt 0.1649236 0.4120766
vt 0.1595507 0.4335681
vt 0.07000255 0.243726
vt 0.169401 0.0673161
vt 0.1649236 0.07000255
vt 0.07447995 0.2410396
vt 0.169401 0.4093901
vt 0.169401 0.072689
vt 0.3735708 0.04851099
vt 0.169401 0.414763
vt 0.266113 0.2410396
vt 0.3637205 0.0673161
vt 0.3637205 0.4093901
vt 0.3637205 0.414763
vt 0.3637205 0.072689
vt 0.3681979 0.07000255
vt 0.3789437 0.05209291
vt 0.4586416 0.2410396
vt 0.463119 0.2383531
vt 0.3681979 0.4120766
vt 0.3735708 0.4335681
vt 0.4837151 0.2374576
vt 0.463119 0.243726
vt 0.3789437 0.4299862
vt 0.4837151 0.2446215
vt 0.4864015 0.2374576
vt 0.3807347 0.4326726
vt 0.3744663 0.4353591
vt 0.3807347 0.4586416
vt 0.1523869 0.4586416
vt 0.3977489 0.4487913
vt 0.3807347 0.4586416
vt 0.5096841 0.2508898
vt 0.4864015 0.2446215
vt 0.5096841 0.2311893
vt 0.3977489 0.0332878
vt 0.3807347 0.05030195
vt 0.3807347 0.0234375
vt 0.7165403 0.5096841
vt 0.9081734 0.4317771
vt 0.7210177 0.2831272
vt 0.710272 0.5087886
vt 0.9117553 0.4264043
vt 0.5472943 0.3825257
vt 0.9395153 0.221339
vt 0.5446079 0.3762573
vt 0.9368289 0.2159661
vt 0.5723678 0.1720875
vt 0.7738512 0.08970314
vt 0.5768452 0.1667146
vt 0.7675828 0.08880766
vn -0.01176453 0.05882299 0.9981991
vn -0.4980353 0.003921509 0.8671479
vn -0.8588169 0.003921509 0.5122677
vn -0.8588169 0.05882299 0.5088943
vn -0.874503 0.003921509 0.4850042
vn -0.874503 0.05882299 0.4814398
vn -0.874503 0.003921509 -0.4850042
vn -0.874503 0.05882299 -0.4814398
vn -0.8588169 0.003921509 -0.5122677
vn -0.6784261 0.6313677 0.3756498
vn -0.8588169 0.05882299 -0.5088943
vn -0.4980353 0.003921509 -0.8671479
vn -0.01176453 0.05882299 -0.9981991
vn -0.66274 0.6313677 -0.4026792
vn -0.6784261 0.6313677 -0.3756498
vn -0.01176453 0.6313677 0.7753944
vn -0.66274 0.6313677 0.4026792
vn -0.5529369 0.7725431 0.3121506
vn 0.01176465 0.05882299 0.9981991
vn -0.003921509 0.003921509 0.9999846
vn -0.003921509 0.003921509 0.9999846
vn -0.5450938 0.7725431 -0.3256531
vn -0.01176453 0.6313677 -0.7753944
vn -0.5529369 0.7725431 -0.3121506
vn -0.003921509 0.7725431 0.6349503
vn -0.5450938 0.7725431 0.3256531
vn -0.02744056 0.9996234 0
vn -0.0117638 0.9999309 0
vn -0.0117638 0.9999309 0
vn 0.01176465 0.6313677 0.7753944
vn -0.003921509 0.7725431 -0.6349503
vn -0.003921509 0.9999923 -0.000345267
vn 0.003921568 0.7725431 0.6349503
vn 0.01176392 0.9999309 0
vn 0.003921568 0.7725431 -0.6349503
vn 0.01176392 0.9999309 0
vn 0.5450939 0.7725431 0.3256529
vn 0.6627401 0.6313677 0.4026791
vn 0.02744067 0.9996234 0
vn 0.552937 0.7725431 0.3121505
vn 0.5450939 0.7725431 -0.3256529
vn 0.01176465 0.6313677 -0.7753944
vn 0.6784262 0.6313677 0.3756497
vn 0.552937 0.7725431 -0.3121505
vn 0.6627401 0.6313677 -0.4026791
vn 0.6784262 0.6313677 -0.3756497
vn 0.8745031 0.05882299 0.4814397
vn 0.858817 0.05882299 -0.5088941
vn 0.01176465 0.05882299 -0.9981991
vn -0.003921509 0.003921509 -0.9999846
vn -0.003921509 0.003921509 -0.9999846
vn 0.858817 0.003921509 -0.5122675
vn 0.4980354 0.003921509 -0.8671478
vn 0.8745031 0.003921509 -0.485004
vn 0.8745031 0.05882299 -0.4814397
vn 0.8745031 0.003921509 0.485004
vn 0.858817 0.003921509 0.5122675
vn 0.858817 0.05882299 0.5088941
vn 0.4980354 0.003921509 0.8671478
vn -0.003921509 -0.9999924 0
vn -0.003921509 -0.9999924 0
vn -0.003921509 -0.9999924 0
vn -0.003921509 -0.9999924 0
vn -0.003921509 -0.9999924 0
vn -0.003921509 -0.9999924 0
vn -0.003921509 -0.9999924 0
vn -0.003921509 -0.9999924 0
vn -0.003921509 -0.9999924 0
vn -0.003921509 -0.9999924 0
vn -0.003921509 -0.9999924 0
vn -0.003921509 -0.9999924 0
vn -0.003921509 -0.9999924 0
g PRP_SSL_Hexagon_01_MO_0
f 3/3/3 2/2/2 1/1/1
f 4/4/4 3/3/3 1/1/1
f 5/5/5 3/3/3 4/4/4
f 6/6/6 5/5/5 4/4/4
f 5/5/5 6/6/6 7/7/7
f 6/6/6 8/8/8 7/7/7
f 9/9/9 7/7/7 8/8/8
f 6/6/6 4/4/4 10/10/10
f 8/8/8 6/6/6 10/10/10
f 11/11/11 9/9/9 8/8/8
f 12/12/12 9/9/9 11/11/11
f 13/13/13 12/12/12 11/11/11
f 14/14/14 11/11/11 8/8/8
f 13/13/13 11/11/11 14/14/14
f 15/15/15 8/8/8 10/10/10
f 15/15/15 14/14/14 8/8/8
f 4/4/4 1/1/1 16/16/16
f 4/4/4 17/17/17 10/10/10
f 17/17/17 4/4/4 16/16/16
f 10/10/10 18/18/18 15/15/15
f 10/10/10 17/17/17 18/18/18
f 1/1/1 19/19/19 16/16/16
f 1/1/1 20/20/20 19/19/19
f 20/20/20 21/21/21 19/19/19
f 22/22/22 14/14/14 15/15/15
f 23/23/23 13/13/13 14/14/14
f 14/14/14 22/22/22 23/23/23
f 18/18/18 24/24/24 15/15/15
f 24/24/24 22/22/22 15/15/15
f 16/16/16 25/25/25 17/17/17
f 17/17/17 26/26/26 18/18/18
f 25/25/25 26/26/26 17/17/17
f 18/18/18 27/27/27 24/24/24
f 18/18/18 26/26/26 27/27/27
f 28/28/28 22/22/22 24/24/24
f 27/27/27 28/28/28 24/24/24
f 26/26/26 29/29/29 27/27/27
f 25/25/25 29/29/29 26/26/26
f 16/16/16 30/30/30 25/25/25
f 19/19/19 30/30/30 16/16/16
f 22/22/22 31/31/31 23/23/23
f 22/22/22 28/28/28 31/31/31
f 32/32/32 28/28/28 27/27/27
f 32/32/32 27/27/27 29/29/29
f 25/25/25 33/33/33 29/29/29
f 30/30/30 33/33/33 25/25/25
f 28/28/28 34/34/34 31/31/31
f 32/32/32 34/34/34 28/28/28
f 23/23/23 31/31/31 35/35/35
f 34/34/34 35/35/35 31/31/31
f 32/32/32 29/29/29 36/36/36
f 33/33/33 36/36/36 29/29/29
f 37/37/37 33/33/33 30/30/30
f 37/37/37 36/36/36 33/33/33
f 30/30/30 19/19/19 38/38/38
f 38/38/38 37/37/37 30/30/30
f 32/32/32 39/39/39 34/34/34
f 32/32/32 36/36/36 39/39/39
f 37/37/37 40/40/40 36/36/36
f 40/40/40 39/39/39 36/36/36
f 41/41/41 34/34/34 39/39/39
f 35/35/35 34/34/34 41/41/41
f 42/42/42 23/23/23 35/35/35
f 23/23/23 42/42/42 13/13/13
f 43/43/43 40/40/40 37/37/37
f 38/38/38 43/43/43 37/37/37
f 44/44/44 39/39/39 40/40/40
f 44/44/44 41/41/41 39/39/39
f 44/44/44 40/40/40 43/43/43
f 41/41/41 45/45/45 35/35/35
f 45/45/45 41/41/41 44/44/44
f 45/45/45 42/42/42 35/35/35
f 46/46/46 44/44/44 43/43/43
f 46/46/46 45/45/45 44/44/44
f 47/47/47 43/43/43 38/38/38
f 43/43/43 47/47/47 46/46/46
f 45/45/45 48/48/48 42/42/42
f 48/48/48 45/45/45 46/46/46
f 42/42/42 49/49/49 13/13/13
f 48/48/48 49/49/49 42/42/42
f 49/49/49 50/50/50 13/13/13
f 50/50/50 51/51/51 13/13/13
f 48/48/48 52/52/52 49/49/49
f 52/52/52 53/53/53 49/49/49
f 54/54/54 52/52/52 48/48/48
f 55/55/55 48/48/48 46/46/46
f 55/55/55 54/54/54 48/48/48
f 47/47/47 55/55/55 46/46/46
f 56/56/56 54/54/54 55/55/55
f 47/47/47 56/56/56 55/55/55
f 57/57/57 56/56/56 47/47/47
f 58/58/58 57/57/57 47/47/47
f 58/58/58 47/47/47 38/38/38
f 59/59/59 57/57/57 58/58/58
f 19/19/19 58/58/58 38/38/38
f 19/19/19 59/59/59 58/58/58
f 62/62/62 61/61/61 60/60/60
f 62/62/62 60/60/60 63/63/63
f 62/62/62 64/64/64 61/61/61
f 62/62/62 63/63/63 65/65/65
f 62/62/62 66/66/66 64/64/64
f 67/67/67 62/62/62 65/65/65
f 62/62/62 68/68/68 66/66/66
f 62/62/62 67/67/67 69/69/69
f 62/62/62 70/70/70 68/68/68
f 62/62/62 69/69/69 71/71/71
f 62/62/62 72/72/72 70/70/70
f 62/62/62 71/71/71 72/72/72
